<svg width="512" height="512" viewBox="0 0 512 512" fill="none" xmlns="http://www.w3.org/2000/svg" xmlns:xlink="http://www.w3.org/1999/xlink" class="h-full w-full" id="iconWithBackground"><rect id="r4" width="512" height="512" x="0" y="0" rx="35" fill="#ffffff" stroke="#000000" stroke-width="0" stroke-opacity="100%" paint-order="stroke"></rect><defs><linearGradient id="linearGradient" gradientUnits="userSpaceOnUse" gradientTransform="rotate(0)" style="transform-origin: center center;"><stop stop-color="#8e2de2"></stop><stop offset="1" stop-color="#4a00e0"></stop></linearGradient><radialGradient id="glare" cx="0" cy="0" r="1" gradientUnits="userSpaceOnUse" gradientTransform="translate(256) rotate(90) scale(512)"><stop stop-color="white"></stop><stop offset="1" stop-color="white" stop-opacity="0"></stop></radialGradient><clipPath id="clip"><use xlink:href="#r4"></use></clipPath></defs><svg xmlns="http://www.w3.org/2000/svg" xmlns:xlink="http://www.w3.org/1999/xlink" aria-hidden="true" role="img" x="128" y="128" class="iconify iconify--devicon" width="256" height="256" viewBox="0 0 128 128" style="color: rgb(0, 0, 0);"><defs><linearGradient id="iconifyReact24544" x1="882.997" x2="638.955" y1="27.113" y2="866.902" gradientTransform="scale(.1)" gradientUnits="userSpaceOnUse"><stop offset="0" stop-color="#000014"></stop><stop offset="1" stop-color="#150426"></stop></linearGradient><linearGradient id="iconifyReact24545" x1="1001.68" x2="790.326" y1="652.45" y2="1094.91" gradientTransform="scale(.1)" gradientUnits="userSpaceOnUse"><stop offset="0" stop-color="#ff1639"></stop><stop offset="1" stop-color="#ff1639" stop-opacity="0"></stop></linearGradient></defs><path fill="url(#iconifyReact24544)" d="M81.504 9.465c.973 1.207 1.469 2.836 2.457 6.09l21.656 71.136a90.079 90.079 0 0 0-25.89-8.765L65.629 30.28a1.833 1.833 0 0 0-3.52.004L48.18 77.902a90.104 90.104 0 0 0-26.003 8.778l21.758-71.14c.996-3.25 1.492-4.876 2.464-6.083a8.023 8.023 0 0 1 3.243-2.398c1.433-.575 3.136-.575 6.535-.575H71.72c3.402 0 5.105 0 6.543.579a7.988 7.988 0 0 1 3.242 2.402Zm0 0"></path><path fill="#ff5d01" d="M84.094 90.074c-3.57 3.055-10.696 5.137-18.903 5.137c-10.07 0-18.515-3.137-20.754-7.356c-.8 2.418-.98 5.184-.98 6.954c0 0-.527 8.675 5.508 14.71a5.671 5.671 0 0 1 5.672-5.671c5.37 0 5.367 4.683 5.363 8.488v.336c0 5.773 3.527 10.719 8.543 12.805a11.62 11.62 0 0 1-1.172-5.098c0-5.508 3.23-7.555 6.988-9.938c2.989-1.894 6.309-4 8.594-8.222a15.513 15.513 0 0 0 1.875-7.41a15.55 15.55 0 0 0-.734-4.735Zm0 0"></path><path fill="url(#iconifyReact24545)" d="M84.094 90.074c-3.57 3.055-10.696 5.137-18.903 5.137c-10.07 0-18.515-3.137-20.754-7.356c-.8 2.418-.98 5.184-.98 6.954c0 0-.527 8.675 5.508 14.71a5.671 5.671 0 0 1 5.672-5.671c5.37 0 5.367 4.683 5.363 8.488v.336c0 5.773 3.527 10.719 8.543 12.805a11.62 11.62 0 0 1-1.172-5.098c0-5.508 3.23-7.555 6.988-9.938c2.989-1.894 6.309-4 8.594-8.222a15.513 15.513 0 0 0 1.875-7.41a15.55 15.55 0 0 0-.734-4.735Zm0 0"></path></svg></svg>